<svg xmlns="http://www.w3.org/2000/svg" viewBox="0 0 500 500"><path d="M64 137A298 298 0 0 1 345 23c92 15 136 88 138 130 5 88-37 99-23 143 19 57 7 111-65 153-55 31-249 69-343-48-61-75-38-195 12-264Z" fill="#263238"/><path d="M335 426a94 94 0 0 0 40-8c18-9 40-34 45-48 12-33-7-51-25-53-33-4-46 27-69 35-7 3-15 4-23 6-12 2-21 11-24 24s6 25 15 32 20 10 32 12a89 89 0 0 0 9 0ZM304 70c-26 14-46 38-29 67 9 15 27 24 42 29 15 4 30 10 41 21 12 12 20 26 36 33 18 9 34 5 48-9 16-15 17-41 13-61-9-50-55-94-108-93-13 0-29 5-43 13ZM88 124l-1 1c-9 13-6 33 11 37a16 16 0 0 0 13-3c5-3 5-9 8-13l12-11a18 18 0 0 0 4-14c-1-9-10-12-18-12a35 35 0 0 0-29 15Z" fill="#37474f"/><path d="M39 119c-3-5-2-13-1-19 5-17 13-32 24-45 15-15 37-26 59-25 6 0 16 1 21 6 4 5 0 10-5 12-25 15-48 30-67 52l-15 18c-3 2-6 4-9 4-2 0-5 0-7-3Z" fill="#263238"/><path d="M306 206a11 11 0 1 1 12-11 11 11 0 0 1-12 11Zm0-22a11 11 0 1 0 11 11 11 11 0 0 0-11-11ZM54 283a8 8 0 1 1 8-8 8 8 0 0 1-8 8Zm0-15a7 7 0 1 0 7 7 7 7 0 0 0-7-7Zm105 181a8 8 0 1 1 8-9 8 8 0 0 1-8 9Zm0-16a8 8 0 1 0 8 7 8 8 0 0 0-8-7Zm17-335a12 12 0 1 1 12-11 12 12 0 0 1-12 11Zm0-22a11 11 0 1 0 11 11 11 11 0 0 0-11-11Z" fill="#ba68c8" opacity=".5"/><path d="M310 195a3 3 0 1 1-4-3 3 3 0 0 1 4 3ZM56 275a2 2 0 1 1-2-2 2 2 0 0 1 2 2Zm105 165a2 2 0 1 1-2-2 2 2 0 0 1 2 2Zm12-353a3 3 0 1 1 3 3 3 3 0 0 1-3-3Zm255 23a1 1 0 1 1 0 2 1 1 0 0 1 0-2Zm-5-3a1 1 0 0 1 1 0 1 1 0 1 1-1 0Zm-44 146a1 1 0 0 1 2 0 1 1 0 1 1-2 0Zm9-8a2 2 0 1 1-1 3 2 2 0 0 1 1-3ZM101 42a1 1 0 1 1-1 1 1 1 0 0 1 1-1Zm4 10a1 1 0 1 1-1 1 1 1 0 0 1 1-1ZM60 84a1 1 0 1 1-1 1 1 1 0 0 1 1-1Zm51-41a2 2 0 1 1-2 2 2 2 0 0 1 2-2ZM54 94a2 2 0 1 1-2 1 2 2 0 0 1 2-1Zm294 304a3 3 0 1 1-3-3 3 3 0 0 1 3 3Zm-11 6a2 2 0 1 1-2-2 2 2 0 0 1 2 2Zm0-12a1 1 0 1 1-1-1 1 1 0 0 1 1 1ZM74 204a2 2 0 1 1-2-3 2 2 0 0 1 2 3Zm-8 4a1 1 0 1 1-1-1 1 1 0 0 1 1 1Zm0-9a1 1 0 1 1-1-1 1 1 0 0 1 1 1Zm163-83a1 1 0 1 1-1-1 1 1 0 0 1 1 1Zm-114 8a1 1 0 1 1-1-1 1 1 0 0 1 1 1Zm120-23 3 3 3-1 1 1-2 3 2 3h-4l-2 2h-1l-1-3-3-2v-1l3-1 1-4Zm215 250v3l2 1v1l-2 1-1 2v1l-2-2h-3l1-3-1-2h3l2-2h1ZM294 41l2-1 1-2h1l1 2 3 1-2 2 1 3h-1l-2-1-2 1h-1l1-3-2-2ZM106 142l-2 1-1 2h-1l-1-2h-3l1-2v-3l3 1 2-2v3l2 2Zm219 135a1 1 0 1 1 0 2 1 1 0 0 1 0-2Zm-3-4a1 1 0 0 1 1 0 1 1 0 0 1-1 1 1 1 0 0 1 0-1Zm-62 174-2 1-1 3h-1l-1-2h-3v-1l1-2-1-3h1l2 1 2-2h1v3l2 2Zm171-247a2 2 0 1 1-1 2 2 2 0 0 1 1-2Z" fill="#ba68c8"/><path d="M310 195a3 3 0 1 1-4-3 3 3 0 0 1 4 3ZM56 275a2 2 0 1 1-2-2 2 2 0 0 1 2 2Zm105 165a2 2 0 1 1-2-2 2 2 0 0 1 2 2Zm12-353a3 3 0 1 1 3 3 3 3 0 0 1-3-3Zm255 23a1 1 0 1 1 0 2 1 1 0 0 1 0-2Zm-5-3a1 1 0 0 1 1 0 1 1 0 1 1-1 0Zm-44 146a1 1 0 0 1 2 0 1 1 0 1 1-2 0Zm9-8a2 2 0 1 1-1 3 2 2 0 0 1 1-3ZM101 42a1 1 0 1 1-1 1 1 1 0 0 1 1-1Zm4 10a1 1 0 1 1-1 1 1 1 0 0 1 1-1ZM60 84a1 1 0 1 1-1 1 1 1 0 0 1 1-1Zm51-41a2 2 0 1 1-2 2 2 2 0 0 1 2-2ZM54 94a2 2 0 1 1-2 1 2 2 0 0 1 2-1Zm294 304a3 3 0 1 1-3-3 3 3 0 0 1 3 3Zm-11 6a2 2 0 1 1-2-2 2 2 0 0 1 2 2Zm0-12a1 1 0 1 1-1-1 1 1 0 0 1 1 1ZM74 204a2 2 0 1 1-2-3 2 2 0 0 1 2 3Zm-8 4a1 1 0 1 1-1-1 1 1 0 0 1 1 1Zm0-9a1 1 0 1 1-1-1 1 1 0 0 1 1 1Zm163-83a1 1 0 1 1-1-1 1 1 0 0 1 1 1Zm-114 8a1 1 0 1 1-1-1 1 1 0 0 1 1 1Zm120-23 3 3 3-1 1 1-2 3 2 3h-4l-2 2h-1l-1-3-3-2v-1l3-1 1-4Zm215 250v3l2 1v1l-2 1-1 2v1l-2-2h-3l1-3-1-2h3l2-2h1ZM294 41l2-1 1-2h1l1 2 3 1-2 2 1 3h-1l-2-1-2 1h-1l1-3-2-2ZM106 142l-2 1-1 2h-1l-1-2h-3l1-2v-3l3 1 2-2v3l2 2Zm219 135a1 1 0 1 1 0 2 1 1 0 0 1 0-2Zm-3-4a1 1 0 0 1 1 0 1 1 0 0 1-1 1 1 1 0 0 1 0-1Zm-62 174-2 1-1 3h-1l-1-2h-3v-1l1-2-1-3h1l2 1 2-2h1v3l2 2Zm171-247a2 2 0 1 1-1 2 2 2 0 0 1 1-2Z" opacity=".6" fill="#fff"/><path d="M364 364a4 4 0 0 1 1-5 4 4 0 0 1 4 6 4 4 0 0 1-5-1Z" fill="#ba68c8"/><path d="M365 363a4 4 0 0 1-1-2 4 4 0 0 1 4-3 4 4 0 0 1 3 1 4 4 0 0 1 0 3 4 4 0 0 1-1 2 4 4 0 0 1-5-1Z" fill="#ba68c8"/><path d="M366 363a4 4 0 0 1-1-3 4 4 0 0 1 4-3 4 4 0 0 1 2 1 4 4 0 0 1 1 3 4 4 0 0 1-6 2Z" fill="#ba68c8"/><path d="M366 362a4 4 0 1 1 3 1 4 4 0 0 1-3-1Z" fill="#ba68c8"/><path d="M367 362a4 4 0 0 1 0-3 4 4 0 0 1 4-3 4 4 0 0 1 3 4 4 4 0 0 1-2 2 4 4 0 0 1-5 0Z" fill="#ba68c8"/><path d="M368 361a4 4 0 0 1 1-5 4 4 0 1 1 1 6 4 4 0 0 1-2-1Z" fill="#ba68c8"/><path d="M369 360a3 3 0 0 1 5-4 3 3 0 0 1 0 5 3 3 0 0 1-5-1Z" fill="#ba68c8" opacity=".9"/><path d="M370 360a3 3 0 0 1 3-6 3 3 0 0 1-1 7 3 3 0 0 1-2-1Z" fill="#ba68c8" opacity=".9"/><path d="M371 359a3 3 0 0 1 3-6 3 3 0 0 1-1 7 3 3 0 0 1-2-1Z" fill="#ba68c8" opacity=".9"/><path d="M371 358a3 3 0 0 1 0-2 3 3 0 0 1 1-2 3 3 0 0 1 5 0 3 3 0 0 1 0 3 3 3 0 0 1-6 1Z" fill="#ba68c8" opacity=".9"/><path d="M372 358a3 3 0 0 1 1-5 3 3 0 0 1 4 1 3 3 0 0 1-3 5 3 3 0 0 1-2-1Z" fill="#ba68c8" opacity=".9"/><path d="M373 357a3 3 0 1 1 2 1 3 3 0 0 1-2-1Z" fill="#ba68c8" opacity=".9"/><path d="M374 356a3 3 0 0 1 0-4 3 3 0 0 1 6 3 3 3 0 0 1-2 2 3 3 0 0 1-2 1 3 3 0 0 1-2-2Z" fill="#ba68c8" opacity=".9"/><path d="M375 356a3 3 0 0 1 0-5 3 3 0 0 1 5 1 3 3 0 0 1-5 4Z" fill="#ba68c8" opacity=".9"/><path d="M375 355a3 3 0 0 1 6-4 3 3 0 1 1-6 4Z" fill="#ba68c8" opacity=".9"/><path d="M376 354a3 3 0 1 1 6-1 3 3 0 0 1-1 2 3 3 0 0 1-3 1 3 3 0 0 1-2-2Z" fill="#ba68c8" opacity=".9"/><path d="M377 354a3 3 0 0 1 3-5 3 3 0 0 1 2 1 3 3 0 0 1 0 4 3 3 0 0 1-5 0Z" fill="#ba68c8" opacity=".8"/><path d="M378 353a3 3 0 0 1 5-4 3 3 0 1 1-5 4Z" fill="#ba68c8" opacity=".8"/><path d="M379 353a3 3 0 0 1 0-5 3 3 0 0 1 3 0 3 3 0 0 1 1 5 3 3 0 0 1-2 1 3 3 0 0 1-2-1Z" fill="#ba68c8" opacity=".8"/><path d="M380 352a3 3 0 0 1-1-2 3 3 0 1 1 5 2 3 3 0 0 1-4 0Z" fill="#ba68c8" opacity=".8"/><path d="M380 351a3 3 0 0 1 1-4 3 3 0 0 1 2-1 3 3 0 0 1 3 4 3 3 0 0 1-1 2 3 3 0 0 1-5-1Z" fill="#ba68c8" opacity=".8"/><path d="M381 351a3 3 0 0 1 5-4 3 3 0 0 1-5 4Z" fill="#ba68c8" opacity=".8"/><path d="M382 350a3 3 0 1 1 2 1 3 3 0 0 1-2-1Z" fill="#ba68c8" opacity=".8"/><path d="M383 349a3 3 0 1 1 4 1 3 3 0 0 1-2 0 3 3 0 0 1-2-1Z" fill="#ba68c8" opacity=".8"/><path d="M384 349a3 3 0 0 1 4-4 3 3 0 1 1-4 4Z" fill="#ba68c8" opacity=".8"/><path d="M384 348a3 3 0 0 1 3-5 3 3 0 0 1 2 1 3 3 0 0 1 1 3 3 3 0 0 1-4 2 3 3 0 0 1-2-1Z" fill="#ba68c8" opacity=".8"/><path d="M385 347a3 3 0 0 1 0-2 3 3 0 1 1 5 1 3 3 0 0 1-1 2 3 3 0 0 1-2 0 3 3 0 0 1-2-1Z" fill="#ba68c8" opacity=".7"/><path d="M386 347a3 3 0 0 1 4-4 3 3 0 0 1 0 4 3 3 0 0 1-4 0Z" fill="#ba68c8" opacity=".7"/><path d="M387 346a3 3 0 0 1 0-4 3 3 0 0 1 2 0 3 3 0 0 1 2 1 3 3 0 0 1 0 4 3 3 0 0 1-4-1Z" fill="#ba68c8" opacity=".7"/><path d="M388 345a3 3 0 0 1 4-3 3 3 0 0 1-4 3Z" fill="#ba68c8" opacity=".7"/><path d="M389 345a3 3 0 0 1 4-3 3 3 0 1 1-4 3Z" fill="#ba68c8" opacity=".7"/><path d="M389 344a3 3 0 0 1 1-4 3 3 0 0 1 2 0 3 3 0 1 1-3 4Z" fill="#ba68c8" opacity=".7"/><path d="M390 344a3 3 0 0 1 0-2 3 3 0 0 1 5 0 3 3 0 0 1-5 2Z" fill="#ba68c8" opacity=".7"/><path d="M391 343a3 3 0 1 1 5-1 3 3 0 0 1-1 1 3 3 0 0 1-2 1 3 3 0 0 1-2-1Z" fill="#ba68c8" opacity=".7"/><path d="M392 342a3 3 0 0 1 2-4 3 3 0 1 1-2 4Z" fill="#ba68c8" opacity=".7"/><path d="M393 342a3 3 0 0 1-1-2 3 3 0 0 1 1-2 2 2 0 0 1 2 0 2 2 0 0 1 2 2 2 2 0 0 1-1 2 2 2 0 0 1-3 0Z" fill="#ba68c8" opacity=".7"/><path d="M393 341a2 2 0 0 1 1-3 2 2 0 0 1 2-1 3 3 0 0 1 1 1 2 2 0 0 1 1 2 2 2 0 0 1-1 1 2 2 0 0 1-2 1 3 3 0 0 1-2-1Z" fill="#ba68c8" opacity=".6"/><path d="M394 340a2 2 0 0 1 0-1 2 2 0 0 1 3-3 2 2 0 0 1 1 5 2 2 0 0 1-2 0 2 2 0 0 1-2-1Z" fill="#ba68c8" opacity=".6"/><path d="M395 340a2 2 0 0 1 2-4 2 2 0 1 1 0 5 2 2 0 0 1-2-1Z" fill="#ba68c8" opacity=".6"/><path d="M396 339a2 2 0 0 1 0-3 2 2 0 0 1 4 0 2 2 0 0 1 0 2 2 2 0 0 1-2 2 2 2 0 0 1-2-1Z" fill="#ba68c8" opacity=".6"/><path d="M397 338a2 2 0 0 1 0-3 2 2 0 0 1 2 0 2 2 0 0 1 1 1 2 2 0 1 1-3 2Z" fill="#ba68c8" opacity=".6"/><path d="M398 338a2 2 0 0 1 0-3 2 2 0 0 1 2-1 2 2 0 0 1 1 1 2 2 0 0 1 1 2 2 2 0 0 1-3 2 2 2 0 0 1-1-1Z" fill="#ba68c8" opacity=".6"/><path d="M398 337a2 2 0 0 1 0-2 2 2 0 1 1 2 3 2 2 0 0 1-2-1Z" fill="#ba68c8" opacity=".6"/><path d="M399 336a2 2 0 0 1 0-1 2 2 0 0 1 1-2 2 2 0 0 1 1 0 2 2 0 0 1 0 4 2 2 0 0 1-2-1Z" fill="#ba68c8" opacity=".6"/><path d="M400 336a2 2 0 0 1 0-3 2 2 0 0 1 2-1 2 2 0 0 1 2 1 2 2 0 0 1-1 3 2 2 0 0 1-3 0Z" fill="#ba68c8" opacity=".6"/><path d="M401 335a2 2 0 0 1 0-3 2 2 0 0 1 2 0 2 2 0 0 1 1 4 2 2 0 0 1-2 0 2 2 0 0 1-1-1Z" fill="#ba68c8" opacity=".6"/><path d="M402 335a2 2 0 1 1 4-1 2 2 0 0 1-1 1 2 2 0 0 1-2 0 2 2 0 0 1-1 0Z" fill="#ba68c8" opacity=".5"/><path d="M403 334a2 2 0 0 1-1-2 2 2 0 0 1 2-1 2 2 0 0 1 2 0 2 2 0 0 1 0 2 2 2 0 0 1-1 1 2 2 0 0 1-1 1 2 2 0 0 1-1-1Z" fill="#ba68c8" opacity=".5"/><path d="M403 333a2 2 0 1 1 4-2 2 2 0 0 1-4 2Z" fill="#ba68c8" opacity=".5"/><path d="M404 333a2 2 0 0 1 2-4 2 2 0 0 1 2 3 2 2 0 0 1-1 1 2 2 0 0 1-3 0Z" fill="#ba68c8" opacity=".5"/><path d="M405 332a2 2 0 0 1 0-1 2 2 0 0 1 0-2 2 2 0 0 1 2 0 2 2 0 0 1 1 1 2 2 0 0 1 1 1 2 2 0 0 1-3 2 2 2 0 0 1-1-1Z" fill="#ba68c8" opacity=".5"/><path d="M406 331a2 2 0 1 1 3-1 2 2 0 0 1 0 2 2 2 0 0 1-2 0 2 2 0 0 1-1-1Z" fill="#ba68c8" opacity=".5"/><path d="M407 331a2 2 0 0 1 1-3 2 2 0 0 1 2 0 2 2 0 0 1-1 3 2 2 0 0 1-2 0Z" fill="#ba68c8" opacity=".5"/><path d="M407 330a2 2 0 0 1 0-1 2 2 0 0 1 1-2 2 2 0 0 1 2 1 2 2 0 0 1 0 2 2 2 0 0 1-1 1 2 2 0 0 1-2-1Z" fill="#ba68c8" opacity=".5"/><path d="M408 329a2 2 0 0 1 1-2 2 2 0 0 1 1-1 2 2 0 1 1-2 3Z" fill="#ba68c8" opacity=".5"/><path d="M409 329a2 2 0 0 1 0-2 2 2 0 0 1 0-1 2 2 0 0 1 3 1 2 2 0 0 1 0 1 2 2 0 0 1-2 1 2 2 0 0 1-1 0Z" fill="#ba68c8" opacity=".5"/><path d="M410 328a2 2 0 0 1 0-1 2 2 0 0 1 3 0 2 2 0 0 1-1 1 2 2 0 0 1-1 1 2 2 0 0 1-1-1Z" fill="#ba68c8" opacity=".5"/><path d="M411 328a2 2 0 0 1-1-2 2 2 0 0 1 1-1 2 2 0 0 1 2 3 2 2 0 0 1-1 0 2 2 0 0 1-1 0Z" fill="#ba68c8" opacity=".4"/><path d="M412 327a2 2 0 0 1-1-1 2 2 0 0 1 1-2 2 2 0 0 1 1 0 2 2 0 0 1 1 1 2 2 0 0 1 0 2 2 2 0 0 1-1 1 2 2 0 0 1-1-1Z" fill="#ba68c8" opacity=".4"/><path d="M412 326a2 2 0 0 1 1-2 2 2 0 0 1 1-1 2 2 0 0 1 1 1 2 2 0 0 1 0 3 2 2 0 0 1-2 0 2 2 0 0 1-1-1Z" fill="#ba68c8" opacity=".4"/><path d="M413 326a2 2 0 0 1 0-2 2 2 0 0 1 0-1 2 2 0 0 1 2 0 2 2 0 0 1 1 2 2 2 0 0 1 0 1 2 2 0 0 1-2 0 2 2 0 0 1-1 0Z" fill="#ba68c8" opacity=".4"/><path d="M414 325a2 2 0 0 1 0-1 2 2 0 0 1 1-2 2 2 0 0 1 2 1 2 2 0 0 1 0 1 2 2 0 0 1-2 2 2 2 0 0 1-1-1Z" fill="#ba68c8" opacity=".4"/><path d="M415 324a2 2 0 0 1-1-1 2 2 0 0 1 2-1 2 2 0 1 1-1 2Z" fill="#ba68c8" opacity=".4"/><path d="M416 324a2 2 0 0 1 2-2 2 2 0 0 1 0 1 2 2 0 0 1 0 1 2 2 0 0 1-2 0Z" fill="#ba68c8" opacity=".4"/><path d="M416 323a2 2 0 0 1 0-1 2 2 0 0 1 1-1 2 2 0 0 1 2 0 2 2 0 0 1 0 1 2 2 0 0 1 0 1 2 2 0 0 1-2 1 2 2 0 0 1-1-1Z" fill="#ba68c8" opacity=".4"/><path d="M417 322a2 2 0 0 1 0-1 2 2 0 0 1 2-1 1 1 0 0 1 1 1 2 2 0 0 1-1 2 2 2 0 0 1-2-1Z" fill="#ba68c8" opacity=".4"/><path d="M418 322a1 1 0 0 1 0-1 2 2 0 0 1 0-1 2 2 0 0 1 1-1 1 1 0 0 1 1 1 1 1 0 0 1 1 1 2 2 0 0 1-1 1 1 1 0 0 1-1 0 1 1 0 0 1-1 0Z" fill="#ba68c8" opacity=".4"/><path d="M419 321a1 1 0 1 1 2 0 1 1 0 0 1-2 0Z" fill="#ba68c8" opacity=".3"/><path d="M420 320a1 1 0 0 1-1-1 1 1 0 0 1 1 0 1 1 0 0 1 2 0 1 1 0 0 1 0 1 1 1 0 0 1 0 1 1 1 0 0 1-1 0 1 1 0 0 1-1-1Z" fill="#ba68c8" opacity=".3"/><path d="M421 320a1 1 0 1 1 2-2 1 1 0 0 1 0 1 1 1 0 0 1-1 1 1 1 0 0 1-1 0Z" fill="#ba68c8" opacity=".3"/><path d="M421 319a1 1 0 0 1 0-1 1 1 0 0 1 1-1 1 1 0 0 1 1 0 1 1 0 0 1 1 1 1 1 0 0 1 0 1 1 1 0 0 1-1 0 1 1 0 0 1-2 0Z" fill="#ba68c8" opacity=".3"/><path d="M422 319a1 1 0 0 1 0-1 1 1 0 0 1 0-1 1 1 0 0 1 1-1 1 1 0 0 1 1 1 1 1 0 0 1 1 1 1 1 0 0 1-1 1 1 1 0 0 1-1 0 1 1 0 0 1-1 0Z" fill="#ba68c8" opacity=".3"/><path d="M423 318a1 1 0 0 1 0-1 1 1 0 0 1 0-1 1 1 0 0 1 2 0 1 1 0 0 1 0 2 1 1 0 0 1-1 0 1 1 0 0 1-1 0Z" fill="#ba68c8" opacity=".3"/><path d="M424 317a1 1 0 0 1 0-1 1 1 0 0 1 1-1 1 1 0 0 1 1 1 1 1 0 0 1 0 1 1 1 0 0 1-1 1 1 1 0 0 1-1-1Z" fill="#ba68c8" opacity=".3"/><path d="M425 317a1 1 0 0 1-1-1 1 1 0 0 1 1-1 1 1 0 0 1 1 0 1 1 0 0 1 1 0 1 1 0 0 1-1 2 1 1 0 0 1-1 0Z" fill="#ba68c8" opacity=".3"/><path d="M426 316a1 1 0 0 1-1-1 1 1 0 0 1 1-1 1 1 0 0 1 1 0 1 1 0 0 1 0 1 1 1 0 0 1 1 0 1 1 0 0 1-1 1 1 1 0 0 1-1 0Z" fill="#ba68c8" opacity=".3"/><path d="M426 315a1 1 0 0 1 1-1 1 1 0 0 1 1 0 1 1 0 0 1 0 2 1 1 0 0 1-2-1Z" fill="#ba68c8" opacity=".3"/><path d="M427 315a1 1 0 0 1 0-1 1 1 0 0 1 0-1 1 1 0 0 1 1 0 1 1 0 0 1 1 0 1 1 0 0 1 0 1 1 1 0 0 1 0 1 1 1 0 0 1-1 0 1 1 0 0 1-1 0Z" fill="#ba68c8" opacity=".2"/><path d="M428 314a1 1 0 0 1 0-1 1 1 0 0 1 1-1 1 1 0 0 1 1 1 1 1 0 0 1-1 1 1 1 0 0 1-1 0Z" fill="#ba68c8" opacity=".2"/><path d="M429 313a1 1 0 0 1 0-1 1 1 0 0 1 1 0 1 1 0 0 1 1 1 1 1 0 0 1-1 1 1 1 0 0 1-1-1Z" fill="#ba68c8" opacity=".2"/><path d="M430 313a1 1 0 0 1-1-1 1 1 0 0 1 1-1 1 1 0 0 1 1 0 1 1 0 0 1 0 1 1 1 0 0 1 0 1 1 1 0 0 1-1 0Z" fill="#ba68c8" opacity=".2"/><path d="M430 312a1 1 0 0 1 0-1 1 1 0 0 1 1 0 1 1 0 1 1 0 1 1 1 0 0 1-1 0Z" fill="#ba68c8" opacity=".2"/><path d="M431 311a1 1 0 0 1 0-1 1 1 0 0 1 2 1 1 1 0 0 1 0 1 1 1 0 0 1-1 0 1 1 0 0 1-1-1Z" fill="#ba68c8" opacity=".2"/><path d="M432 311a1 1 0 1 1 1-1 1 1 0 0 1 1 0 1 1 0 0 1-1 1 1 1 0 0 1-1 0Z" fill="#ba68c8" opacity=".2"/><path d="M433 310a1 1 0 0 1 0-1 1 1 0 0 1 1 0 1 1 0 0 1 0 1 1 1 0 0 1-1 1 1 1 0 0 1 0-1Z" fill="#ba68c8" opacity=".2"/><path d="M434 310a1 1 0 0 1 0-1 1 1 0 0 1 0-1 1 1 0 0 1 1 1 1 1 0 0 1 0 1 1 1 0 0 1-1 0Z" fill="#ba68c8" opacity=".2"/><path d="M435 309a1 1 0 0 1-1-1 1 1 0 0 1 1 0 1 1 0 1 1 1 1 1 1 0 0 1-1 0Z" fill="#ba68c8" opacity=".2"/><path d="M435 308a1 1 0 0 1 0-1 1 1 0 0 1 1 0 1 1 0 0 1 1 0 1 1 0 0 1 0 1 1 1 0 0 1-1 0 1 1 0 0 1 0 1 1 1 0 0 1-1-1Z" fill="#ba68c8" opacity=".1"/><path d="M436 308a1 1 0 0 1 0-1 1 1 0 0 1 1-1 1 1 0 0 1 0 1 1 1 0 0 1 0 1 1 1 0 0 1-1 0Z" fill="#ba68c8" opacity=".1"/><path d="M437 307a1 1 0 0 1 0-1 1 1 0 0 1 1 0 1 1 0 0 1 0 1 1 1 0 0 1-1 0Z" fill="#ba68c8" opacity=".1"/><path d="M438 306a1 1 0 0 1 0-1 1 1 0 1 1 0 1Z" fill="#ba68c8" opacity=".1"/><path d="M439 306a1 1 0 0 1 0-1 1 1 0 0 1 1 0 1 1 0 0 1 0 1 1 1 0 0 1-1 0Z" fill="#ba68c8" opacity=".1"/><path d="M439 305a1 1 0 0 1 1-1 1 1 0 0 1 1 1 1 1 0 0 1-1 0 1 1 0 0 1-1 0Z" fill="#ba68c8" opacity=".1"/><path d="M440 304a1 1 0 0 1 1 0 1 1 0 0 1 0 1 1 1 0 0 1-1-1Zm1 0a1 1 0 0 1 0-1 1 1 0 0 1 1 0 1 1 0 0 1 0 1 1 1 0 0 1-1 0Zm1-1v-1a1 1 0 0 1 1 1 1 1 0 0 1-1 0Zm1 0v-1h1l-1 1Z" fill="#ba68c8" opacity=".1"/><path d="M365 363a2 2 0 1 1 3 0 2 2 0 0 1-3 0Z" fill="#fafafa"/><path d="M380 367a2 2 0 0 1 0-3 2 2 0 1 1 0 3Z" fill="#ba68c8"/><path d="M380 366a2 2 0 0 1 0-1 2 2 0 0 1 3-1 2 2 0 0 1 0 3 2 2 0 0 1-1 0 2 2 0 0 1-2-1Z" fill="#ba68c8"/><path d="M381 366a2 2 0 0 1-1-1 2 2 0 0 1 1-2 2 2 0 0 1 1 0 2 2 0 0 1 2 2 2 2 0 0 1-1 1 2 2 0 0 1-1 1 2 2 0 0 1-1-1Z" fill="#ba68c8"/><path d="M381 366a2 2 0 0 1 0-3 2 2 0 0 1 2 0 2 2 0 1 1-1 4 2 2 0 0 1-1-1Z" fill="#ba68c8"/><path d="M381 366a2 2 0 0 1 0-2 2 2 0 0 1 1-1 2 2 0 0 1 2 0 2 2 0 0 1 1 2 2 2 0 0 1-4 1Z" fill="#ba68c8"/><path d="M382 365a2 2 0 0 1 1-3 2 2 0 0 1 2 1 2 2 0 0 1-1 3 2 2 0 0 1-1 0 2 2 0 0 1-1-1Z" fill="#ba68c8"/><path d="M382 365a2 2 0 0 1 2-3 2 2 0 0 1 1 1 2 2 0 0 1 1 1 2 2 0 0 1-3 2 2 2 0 0 1-1-1Z" fill="#ba68c8" opacity=".9"/><path d="M382 365a2 2 0 0 1 0-2 2 2 0 0 1 3-1 2 2 0 0 1 1 2 2 2 0 0 1-4 1Z" fill="#ba68c8" opacity=".9"/><path d="M383 364a2 2 0 0 1-1-1 2 2 0 0 1 4-1 2 2 0 0 1-2 3 2 2 0 0 1-1-1Z" fill="#ba68c8" opacity=".9"/><path d="M383 364a2 2 0 0 1 0-1 2 2 0 0 1 3-1 2 2 0 0 1 0 1 2 2 0 0 1-2 2 2 2 0 0 1-1-1Z" fill="#ba68c8" opacity=".9"/><path d="M383 364a2 2 0 0 1 1-3 2 2 0 0 1 1 0 2 2 0 0 1 1 1 2 2 0 0 1 1 1 2 2 0 0 1-1 1 2 2 0 0 1-3 0Z" fill="#ba68c8" opacity=".9"/><path d="M384 364a2 2 0 0 1 0-3 2 2 0 0 1 1 0 2 2 0 0 1 2 0 2 2 0 0 1 0 2 2 2 0 0 1-1 1 2 2 0 0 1-1 0 2 2 0 0 1-1 0Z" fill="#ba68c8" opacity=".9"/><path d="M384 363a2 2 0 0 1 0-1 2 2 0 0 1 0-1 2 2 0 0 1 2-1 2 2 0 0 1 1 1 2 2 0 0 1 0 1 2 2 0 0 1-2 2 2 2 0 0 1-1-1Z" fill="#ba68c8" opacity=".9"/><path d="M384 363a2 2 0 0 1 0-1 2 2 0 0 1 2-2 2 2 0 0 1 1 1 2 2 0 0 1 1 1 2 2 0 0 1-2 2 2 2 0 0 1-2-1Z" fill="#ba68c8" opacity=".9"/><path d="M385 363a2 2 0 0 1-1-2 2 2 0 0 1 1-1 2 2 0 0 1 1 0 2 2 0 0 1 2 2 2 2 0 0 1-1 1 2 2 0 0 1-1 0 2 2 0 0 1-1 0Z" fill="#ba68c8" opacity=".9"/><path d="M385 362a2 2 0 0 1 0-1 2 2 0 0 1 0-1 2 2 0 0 1 2 0 2 2 0 0 1 1 0 2 2 0 0 1 0 2 2 2 0 0 1 0 1 2 2 0 0 1-2 0 2 2 0 0 1-1-1Z" fill="#ba68c8" opacity=".9"/><path d="M386 362a2 2 0 0 1-1-1 2 2 0 0 1 2-2 2 2 0 0 1 1 1 2 2 0 0 1 0 2 2 2 0 0 1-2 0Z" fill="#ba68c8" opacity=".8"/><path d="M386 362a2 2 0 0 1 0-1 2 2 0 0 1 0-2 2 2 0 0 1 3 1 2 2 0 0 1-1 2 2 2 0 0 1-1 1 2 2 0 0 1-1-1Z" fill="#ba68c8" opacity=".8"/><path d="M386 362a2 2 0 0 1 2-3 2 2 0 0 1 1 0 2 2 0 0 1 0 2 2 2 0 0 1-2 1 2 2 0 0 1-1 0Z" fill="#ba68c8" opacity=".8"/><path d="M387 361a2 2 0 0 1-1-1 2 2 0 0 1 1-1 2 2 0 0 1 1 0 2 2 0 0 1 1 0 2 2 0 0 1 1 1 2 2 0 0 1-1 2 2 2 0 0 1-2-1Z" fill="#ba68c8" opacity=".8"/><path d="M387 361a2 2 0 0 1 0-1 2 2 0 0 1 0-1 2 2 0 0 1 1-1 2 2 0 0 1 2 1 2 2 0 0 1 0 1 2 2 0 0 1-1 1 2 2 0 0 1-2 0Z" fill="#ba68c8" opacity=".8"/><path d="M387 361a2 2 0 0 1 0-1 2 2 0 0 1 1-2 2 2 0 0 1 1 0 2 2 0 0 1 1 2 2 2 0 0 1-3 1Z" fill="#ba68c8" opacity=".8"/><path d="M388 361a2 2 0 0 1-1-2 2 2 0 0 1 1-1 2 2 0 0 1 1 0 2 2 0 0 1 1 0 2 2 0 0 1 1 2 2 2 0 0 1-1 1 2 2 0 0 1-1 0 2 2 0 0 1-1 0Z" fill="#ba68c8" opacity=".8"/><path d="M388 360a2 2 0 0 1 0-2 2 2 0 0 1 1 0 2 2 0 0 1 2 0 2 2 0 0 1 0 1 2 2 0 0 1-2 2 2 2 0 0 1-1-1Z" fill="#ba68c8" opacity=".8"/><path d="M388 360a2 2 0 0 1 3-2 2 2 0 0 1-2 3 2 2 0 0 1-1-1Z" fill="#ba68c8" opacity=".8"/><path d="M389 360a2 2 0 0 1 0-3 2 2 0 0 1 2 1 2 2 0 0 1 0 2 2 2 0 0 1-2 0Z" fill="#ba68c8" opacity=".8"/><path d="M389 359a2 2 0 1 1 1 1 2 2 0 0 1-1-1Z" fill="#ba68c8" opacity=".7"/><path d="M389 359a2 2 0 0 1 1-2 2 2 0 0 1 1 0 2 2 0 0 1 1 0 2 2 0 0 1 0 1 2 2 0 0 1 0 1 2 2 0 0 1-2 1 2 2 0 0 1-1-1Z" fill="#ba68c8" opacity=".7"/><path d="M390 359a2 2 0 0 1-1-1 2 2 0 0 1 1-1 2 2 0 0 1 1-1 2 2 0 0 1 1 1 2 2 0 0 1 0 1 1 1 0 0 1 0 1 2 2 0 0 1-1 0 1 1 0 0 1-1 0Z" fill="#ba68c8" opacity=".7"/><path d="M390 359a2 2 0 0 1 0-3 2 2 0 1 1 0 3Z" fill="#ba68c8" opacity=".7"/><path d="M390 358a2 2 0 0 1 0-1 1 1 0 0 1 1-1 2 2 0 0 1 2 0 2 2 0 0 1 0 2 2 2 0 0 1-3 0Z" fill="#ba68c8" opacity=".7"/><path d="M391 358a1 1 0 0 1 0-2 1 1 0 0 1 1 0 1 1 0 0 1 1 0 1 1 0 0 1 0 2 1 1 0 0 1-1 1 2 2 0 0 1-1-1Z" fill="#ba68c8" opacity=".7"/><path d="M391 358a1 1 0 0 1 0-1 1 1 0 0 1 0-1 1 1 0 0 1 2-1 1 1 0 1 1-2 3Z" fill="#ba68c8" opacity=".7"/><path d="M392 357a1 1 0 0 1-1-1 1 1 0 0 1 1-1 1 1 0 0 1 1 0 1 1 0 0 1 1 1 1 1 0 0 1 0 1 1 1 0 0 1 0 1 1 1 0 0 1-1 0 1 1 0 0 1-1-1Z" fill="#ba68c8" opacity=".7"/><path d="M392 357a1 1 0 0 1 1-2 1 1 0 0 1 1 1 1 1 0 0 1-1 2 1 1 0 0 1-1-1Z" fill="#ba68c8" opacity=".7"/><path d="M392 357a1 1 0 0 1 0-1 1 1 0 0 1 1-1 1 1 0 0 1 1 0 1 1 0 0 1 1 1 1 1 0 0 1-1 1 1 1 0 0 1-1 0 1 1 0 0 1-1 0Z" fill="#ba68c8" opacity=".7"/><path d="M393 357a1 1 0 0 1-1-1 1 1 0 0 1 1-1 1 1 0 0 1 1-1 1 1 0 0 1 1 1 1 1 0 0 1 0 1 1 1 0 0 1-1 1 1 1 0 0 1-1 0Z" fill="#ba68c8" opacity=".6"/><path d="M393 356a1 1 0 0 1 0-1 1 1 0 0 1 0-1 1 1 0 0 1 1 0 1 1 0 0 1 1 1 1 1 0 0 1 0 1 1 1 0 0 1 0 1 1 1 0 0 1-1 0 1 1 0 0 1-1-1Z" fill="#ba68c8" opacity=".6"/><path d="M393 356a1 1 0 0 1 0-1 1 1 0 0 1 1-1 1 1 0 0 1 1 0 1 1 0 1 1-2 2Z" fill="#ba68c8" opacity=".6"/><path d="M394 356a1 1 0 0 1 0-2 1 1 0 0 1 1 0 1 1 0 0 1 1 0 1 1 0 0 1 0 1 1 1 0 0 1 0 1 1 1 0 0 1-1 0 1 1 0 0 1-1 0Z" fill="#ba68c8" opacity=".6"/><path d="M394 356a1 1 0 0 1 0-1 1 1 0 0 1 0-1 1 1 0 0 1 2 0 1 1 0 0 1 0 1 1 1 0 0 1 0 1 1 1 0 0 1-1 0 1 1 0 0 1-1 0Z" fill="#ba68c8" opacity=".6"/><path d="M394 355a1 1 0 0 1 0-1 1 1 0 0 1 2 0 1 1 0 0 1 1 1 1 1 0 0 1-1 1 1 1 0 0 1-2-1Z" fill="#ba68c8" opacity=".6"/><path d="M395 355a1 1 0 1 1 2-1 1 1 0 0 1 0 1 1 1 0 0 1-1 0 1 1 0 0 1-1 0Z" fill="#ba68c8" opacity=".6"/><path d="M395 355a1 1 0 0 1 1-2 1 1 0 0 1 1 0 1 1 0 0 1 0 2 1 1 0 0 1-2 0Z" fill="#ba68c8" opacity=".6"/><path d="M395 354a1 1 0 0 1 1-1 1 1 0 0 1 1-1 1 1 0 0 1 0 1 1 1 0 0 1 1 1 1 1 0 0 1-1 1 1 1 0 0 1-1 0 1 1 0 0 1-1-1Z" fill="#ba68c8" opacity=".6"/><path d="M396 354a1 1 0 0 1 0-1 1 1 0 0 1 0-1 1 1 0 0 1 1 0 1 1 0 0 1 1 2 1 1 0 0 1-1 1 1 1 0 0 1-1-1Z" fill="#ba68c8" opacity=".6"/><path d="M396 354a1 1 0 0 1 0-1 1 1 0 0 1 0-1 1 1 0 0 1 1 0 1 1 0 0 1 1 1 1 1 0 0 1-1 1 1 1 0 0 1-1 0Z" fill="#ba68c8" opacity=".5"/><path d="M397 354a1 1 0 0 1-1-1 1 1 0 0 1 1-1 1 1 0 0 1 1 0 1 1 0 0 1 1 1 1 1 0 0 1-1 1 1 1 0 0 1-1 0Z" fill="#ba68c8" opacity=".5"/><path d="M397 353a1 1 0 0 1 0-1 1 1 0 0 1 1-1 1 1 0 0 1 1 1 1 1 0 0 1-1 2 1 1 0 0 1-1-1Z" fill="#ba68c8" opacity=".5"/><path d="M397 353a1 1 0 0 1 0-1 1 1 0 0 1 0-1 1 1 0 0 1 1 0 1 1 0 0 1 1 1 1 1 0 0 1 0 1 1 1 0 0 1-1 0 1 1 0 0 1-1 0Z" fill="#ba68c8" opacity=".5"/><path d="M398 353a1 1 0 0 1-1-1 1 1 0 0 1 1-1 1 1 0 0 1 1 0 1 1 0 0 1 1 1 1 1 0 0 1-1 1 1 1 0 0 1-1 0Z" fill="#ba68c8" opacity=".5"/><path d="M398 352a1 1 0 0 1 0-1 1 1 0 0 1 2 0 1 1 0 0 1 0 1 1 1 0 0 1-1 1 1 1 0 0 1-1-1Z" fill="#ba68c8" opacity=".5"/><path d="M398 352a1 1 0 0 1 0-1 1 1 0 0 1 1-1 1 1 0 0 1 1 1 1 1 0 0 1 0 1 1 1 0 0 1-2 0Z" fill="#ba68c8" opacity=".5"/><path d="M399 352a1 1 0 0 1-1-1 1 1 0 0 1 1-1 1 1 0 0 1 1 0 1 1 0 0 1 0 1 1 1 0 0 1-1 1Z" fill="#ba68c8" opacity=".5"/><path d="M399 352a1 1 0 0 1 0-2 1 1 0 0 1 2 1 1 1 0 0 1-1 1 1 1 0 0 1-1 0Z" fill="#ba68c8" opacity=".5"/><path d="M399 351a1 1 0 0 1 1-1 1 1 0 0 1 1 0 1 1 0 0 1 0 1 1 1 0 0 1 0 1 1 1 0 0 1-1 0 1 1 0 0 1-1-1Z" fill="#ba68c8" opacity=".5"/><path d="M400 351a1 1 0 0 1 0-1 1 1 0 0 1 1-1 1 1 0 0 1 0 2 1 1 0 0 1-1 0Z" fill="#ba68c8" opacity=".5"/><path d="M400 351a1 1 0 0 1 0-1 1 1 0 0 1 0-1 1 1 0 0 1 1 0 1 1 0 0 1 1 1 1 1 0 0 1-1 1 1 1 0 0 1-1 0Z" fill="#ba68c8" opacity=".4"/><path d="M400 351a1 1 0 0 1 0-1 1 1 0 0 1 1-1 1 1 0 0 1 1 0 1 1 0 0 1 0 1 1 1 0 0 1 0 1 1 1 0 0 1-1 0 1 1 0 0 1-1 0Z" fill="#ba68c8" opacity=".4"/><path d="M401 350a1 1 0 0 1 0-1 1 1 0 0 1 1 0 1 1 0 0 1 0 1 1 1 0 0 1-1 1 1 1 0 0 1 0-1Z" fill="#ba68c8" opacity=".4"/><path d="M401 350a1 1 0 0 1 0-1 1 1 0 0 1 1 0 1 1 0 0 1 1 0 1 1 0 0 1 0 1 1 1 0 0 1-1 0 1 1 0 0 1-1 0Z" fill="#ba68c8" opacity=".4"/><path d="M401 350a1 1 0 0 1 1-2 1 1 0 0 1 1 1 1 1 0 0 1 0 1 1 1 0 0 1-2 0Z" fill="#ba68c8" opacity=".4"/><path d="M402 349a1 1 0 0 1 0-1 1 1 0 0 1 1 0 1 1 0 0 1 0 1 1 1 0 0 1 0 1 1 1 0 0 1-1 0 1 1 0 0 1 0-1Z" fill="#ba68c8" opacity=".4"/><path d="M402 349a1 1 0 0 1 0-1 1 1 0 0 1 1 0 1 1 0 0 1 1 0 1 1 0 0 1 0 1 1 1 0 0 1-1 0 1 1 0 0 1-1 0Z" fill="#ba68c8" opacity=".4"/><path d="M403 349a1 1 0 0 1-1-1 1 1 0 0 1 1 0 1 1 0 0 1 1 0 1 1 0 0 1 0 1 1 1 0 0 1-1 0Z" fill="#ba68c8" opacity=".4"/><path d="M403 349a1 1 0 0 1 0-1 1 1 0 0 1 0-1 1 1 0 0 1 1 0 1 1 0 0 1 0 1 1 1 0 0 1 0 1 1 1 0 0 1-1 0Z" fill="#ba68c8" opacity=".4"/><path d="M403 348a1 1 0 0 1 0-1 1 1 0 0 1 1 0 1 1 0 0 1 1 0 1 1 0 0 1 0 1 1 1 0 0 1-1 0 1 1 0 0 1-1 0Z" fill="#ba68c8" opacity=".4"/><path d="M404 348a1 1 0 0 1-1-1 1 1 0 0 1 1 0 1 1 0 0 1 1 0 1 1 0 0 1 0 1 1 1 0 0 1-1 0Z" fill="#ba68c8" opacity=".3"/><path d="M404 348a1 1 0 0 1 0-1 1 1 0 0 1 1 0 1 1 0 0 1 0 1 1 1 0 0 1-1 0Z" fill="#ba68c8" opacity=".3"/><path d="M404 347a1 1 0 0 1 0-1 1 1 0 0 1 1 0 1 1 0 0 1 1 1 1 1 0 0 1-1 1 1 1 0 0 1-1-1Z" fill="#ba68c8" opacity=".3"/><path d="M405 347a1 1 0 0 1 0-1 1 1 0 0 1 1 1 1 1 0 0 1-1 0Z" fill="#ba68c8" opacity=".3"/><path d="M405 347a1 1 0 0 1 0-1 1 1 0 0 1 1 0 1 1 0 0 1 0 1 1 1 0 0 1-1 0Z" fill="#ba68c8" opacity=".3"/><path d="M405 347a1 1 0 0 1 0-1 1 1 0 0 1 1 0 1 1 0 0 1 1 0 1 1 0 0 1-1 1 1 1 0 0 1-1 0Z" fill="#ba68c8" opacity=".3"/><path d="M406 346a1 1 0 0 1 0-1 1 1 0 0 1 1 1 1 1 0 0 1-1 1 1 1 0 0 1 0-1Z" fill="#ba68c8" opacity=".3"/><path d="M406 346a1 1 0 0 1 0-1 1 1 0 0 1 1 1 1 1 0 0 1-1 0Z" fill="#ba68c8" opacity=".3"/><path d="M406 346a1 1 0 0 1 1-1 1 1 0 0 1 1 1 1 1 0 0 1-2 0Z" fill="#ba68c8" opacity=".3"/><path d="M407 346a1 1 0 0 1 0-1 1 1 0 0 1 1 0 1 1 0 0 1-1 1Z" fill="#ba68c8" opacity=".3"/><path d="M407 345a1 1 0 0 1 0-1 1 1 0 0 1 1 0 1 1 0 0 1 0 1 1 1 0 0 1-1 0Z" fill="#ba68c8" opacity=".2"/><path d="M408 345a1 1 0 0 1-1 0 1 1 0 0 1 1-1 1 1 0 0 1 1 1 1 1 0 0 1-1 0Z" fill="#ba68c8" opacity=".2"/><path d="M408 345a1 1 0 0 1 0-1 1 1 0 0 1 1 0 1 1 0 0 1 0 1 1 1 0 0 1-1 0Z" fill="#ba68c8" opacity=".2"/><path d="M408 344a1 1 0 0 1 1 0 1 1 0 0 1 0 1l-1-1Z" fill="#ba68c8" opacity=".2"/><path d="M409 344a1 1 0 0 1-1 0 1 1 0 0 1 1-1v1a1 1 0 0 1 1 0 1 1 0 0 1-1 0Z" fill="#ba68c8" opacity=".2"/><path d="M409 344a1 1 0 0 1 0-1 1 1 0 0 1 1 0 1 1 0 0 1 0 1h-1Z" fill="#ba68c8" opacity=".2"/><path d="M409 344v-1h1v1a1 1 0 0 1-1 0Zm1-1Zm0 0a1 1 0 0 1 0-1h1v1h-1Z" fill="#ba68c8" opacity=".2"/><path d="M410 343v-1h1v1h-1Z" fill="#ba68c8" opacity=".2"/><path d="M411 342v1-1Zm0 0h1-1Zm0 0 1-1v1h-1Zm1 0v-1 1Zm0-1h1-1Zm1 0h-1 1Zm0 0v-1 1Zm0 0v-1h1v1h-1Zm1-1Zm0 0Z" fill="#ba68c8" opacity=".1"/><path d="m293 94 7-7 3-11s-4-4-12-7-19-2-21 0 3 13 10 18l13 7Z" fill="#ba68c8" opacity=".3"/><path d="m294 91 3-7 4-6c-10-8-22-7-23-5s4 13 16 18Z" fill="#ba68c8"/><path d="m294 91 3-7 4-6c-10-8-22-7-23-5s4 13 16 18Z" fill="#fff" opacity=".4"/><path d="m297 84-1 3a11 11 0 0 1-7-3c-2-2-5-5-4-7s5-1 8 1a11 11 0 0 1 5 4l-1 2" fill="#fff"/><path d="m293 103 5-5 1-7a28 28 0 0 0-8-5c-5-2-12-1-13 0s2 8 7 12a27 27 0 0 0 8 5Z" fill="#ba68c8" opacity=".3"/><path d="m293 100 3-4 2-4c-6-5-14-4-15-3s3 8 10 11Z" fill="#ba68c8"/><path d="m293 100 3-4 2-4c-6-5-14-4-15-3s3 8 10 11Z" fill="#fff" opacity=".4"/><path d="m296 96-1 1a7 7 0 0 1-4-1l-4-5 6 1a7 7 0 0 1 3 3l-1 1" fill="#fff"/><path d="m304 85 5-5 2-6a27 27 0 0 0-8-5c-6-2-12-2-13 0s2 8 6 12a28 28 0 0 0 8 4Z" fill="#ba68c8" opacity=".3"/><path d="m305 83 2-4 2-4c-6-5-13-5-14-3s2 8 10 11Z" fill="#ba68c8"/><path d="m305 83 2-4 2-4c-6-5-13-5-14-3s2 8 10 11Z" fill="#fff" opacity=".4"/><path d="m307 79-1 1a7 7 0 0 1-4-1c-2-1-4-4-3-5s4 0 5 1a7 7 0 0 1 4 2l-1 2" fill="#fff"/><path d="M370 76a180 180 0 0 0-49-10v3s23 7 29 15a13 13 0 0 1 3 6 8 8 0 0 1-3 4v3c14 4 37 14 46 19a18 18 0 0 0 1-6v-3c0-10-8-23-27-31Z" fill="#ba68c8"/><path d="M370 76a180 180 0 0 0-49-10v3s23 7 29 15a13 13 0 0 1 3 6 8 8 0 0 1-3 4v3c14 4 37 14 46 19a18 18 0 0 0 1-6v-3c0-10-8-23-27-31Z" opacity=".1"/><path d="M350 94c14 4 37 14 46 19 3-10-3-28-26-37a180 180 0 0 0-49-10s23 7 29 15 0 13 0 13Z" fill="#ba68c8"/><path d="M350 94c14 4 37 14 46 19 3-10-3-28-26-37a180 180 0 0 0-49-10s23 7 29 15 0 13 0 13Z" fill="#fff" opacity=".2"/><path d="m313 75 14 9-17 28-14-6c-3-2-5-5-5-9 0-8 6-18 13-22 4-2 7-2 9 0Z" fill="#37474f"/><path d="M306 105c0 7 6 10 12 6s12-12 12-20-6-10-12-7-12 13-12 21Z" fill="#455a64"/><path d="m317 77 4 3c-2-1-4 0-7 1-7 4-12 14-12 21 0 4 1 6 2 7l-5-2c-2-1-3-4-3-7 0-8 6-18 13-22 3-2 6-2 8-1Z" fill="#ba68c8"/><path d="M304 75h1a30 30 0 0 0-9 10c-4 7-4 13-2 15a29 29 0 0 0 5 2 30 30 0 0 1 5-13c4-8 10-11 13-12l3 2 7 5-15 25-2 3-14-6a6 6 0 0 1-2-1 6 6 0 0 1 0-1 7 7 0 0 1-1-1 11 11 0 0 1-2-6 26 26 0 0 1 4-12 32 32 0 0 1 2-3l1-2a23 23 0 0 1 6-5Z" opacity=".2"/><path d="M309 92v1c-4 5-5 11-4 17a4 4 0 0 0 7-2c-1-3 1-7 3-12l9-9a4 4 0 0 0-3-6c-4 1-9 5-12 11Z" fill="#455a64"/><path d="M392 107c31 18 50 47 51 60a4 4 0 0 1-1 3 4 4 0 0 1-1 1h-1c-11 6-46 4-77-14-29-17-51-40-53-43a11 11 0 0 1-2-7c0-8 6-18 13-23 3-1 5-2 7-1 3 0 35 7 64 24Z" fill="#f5f5f5"/><path d="m440 156 3 11a4 4 0 0 1-1 3 4 4 0 0 1-1 1h-1a32 32 0 0 1-11 3 73 73 0 0 1-10 0l-2-6c0-7 5-16 11-19 3-2 5-2 7-2a71 71 0 0 1 5 9Z" fill="#455a64"/><path d="m442 167 11 9-13-6a1 1 0 0 1 0-1 2 2 0 0 1 1-2 1 1 0 0 1 1 0Z" fill="#f5f5f5"/><path d="M363 157c-29-17-51-40-53-43a11 11 0 0 1-2-7 21 21 0 0 1 0-4c13 12 35 31 59 46 35 19 64 25 73 22-11 7-46 4-77-14Z" opacity=".1"/><path d="M392 107c-29-17-61-24-64-24a11 11 0 0 0-7 1c20 6 44 12 69 27 34 19 50 46 53 56-1-13-20-42-51-60Z" fill="#fff" opacity=".4"/><path d="M348 140c-8-5-26-18-32-26 0 0-8 4-23 0s-25-17-25-17v3s2 14 17 28 46 17 63 15Z" fill="#ba68c8"/><path d="M348 140c-8-5-26-18-32-26 0 0-8 4-23 0s-25-17-25-17v3s2 14 17 28 46 17 63 15Z" opacity=".1"/><path d="M316 114c6 8 24 21 32 26-17 2-48-1-63-15s-17-28-17-28 11 13 26 17 22 0 22 0Z" fill="#ba68c8"/><path d="M316 114c6 8 24 21 32 26-17 2-48-1-63-15s-17-28-17-28 11 13 26 17 22 0 22 0Z" fill="#fff" opacity=".2"/><path d="M412 124c-5-4-13-4-17-2-2 1-4 2-4 4v1c0 2 2 4 4 6 5 3 12 4 17 2 2-1 3-3 3-5v-1c0-2-1-4-3-5Z" fill="#ba68c8"/><path d="M412 124c-5-4-13-4-17-2-2 1-4 2-4 4v1c0 2 2 4 4 6 5 3 12 4 17 2 2-1 3-3 3-5v-1c0-2-1-4-3-5Z" opacity=".2"/><path d="M412 124c-5-4-13-4-17-2s-5 6 0 9 12 4 17 2 5-6 0-9Z" fill="#ba68c8"/><path d="m398 121 5 6 3-6h1l-3 6 9-2-9 2 11 2-11-1 8 5-8-5 1 6h-1l-1-6-6 4 6-4h-11l11-1-11-4h1l10 4-5-6Z" opacity=".2"/><path d="M409 125c-3-3-8-3-12-2s-3 5 0 7 9 3 13 1 3-4-1-6Z" fill="#37474f"/><path d="M410 131c-4 2-9 1-12-1s-3-5 0-6 9-1 12 1 3 5 0 6Z" fill="#455a64"/><path d="M410 126a4 4 0 0 0-4 0v2a4 4 0 0 0 4 0v-2Zm-5-2a2 2 0 0 0-2 0v1a2 2 0 0 0 2 0v-1Z" fill="#e0e0e0"/><path d="M390 110c-3-2-9-3-13-1-2 0-3 2-3 3v2l3 3c4 3 10 3 14 2l2-3v-2l-3-4Z" fill="#ba68c8"/><path d="M390 110c-3-2-9-3-13-1-2 0-3 2-3 3v2l3 3c4 3 10 3 14 2l2-3v-2l-3-4Z" opacity=".2"/><path d="M390 110c-3-2-9-3-13-1s-3 4 0 7 10 3 13 1 4-5 0-7Z" fill="#ba68c8"/><path d="m380 108 4 5 2-5-2 5 7-2h1l-8 2 9 1-9-1 7 4h-1l-6-4 1 5-1-5-5 4-1-1 5-3h-8 8l-8-3 8 3-3-5Z" opacity=".2"/><path d="M389 111c-3-2-7-2-10-1s-3 3 0 5 7 2 10 1 2-3 0-5Z" fill="#37474f"/><path d="M389 116c-3 1-7 1-9-1-3-1-3-4 0-5s6 0 9 1c2 2 2 4 0 5Z" fill="#455a64"/><path d="M389 112a3 3 0 0 0-3 0v1a3 3 0 0 0 3 1v-2Zm-4-1a2 2 0 0 0-1-1v1a2 2 0 0 0 1 0c1 0 1 0 0 0Z" fill="#e0e0e0"/><path d="M373 158c-10 21 14 40 27 54a129 129 0 0 1 19 23c6 11 7 24 4 36-5 16-21 25-37 23-15-2-29-11-39-21-16-15-30-31-50-38-7-2-13-3-20-2a30 30 0 0 0-7 2l-3 2-2 2a21 21 0 0 0-8 10 15 15 0 0 0-1 8 5 5 0 1 1-10 2 25 25 0 0 1 2-13 31 31 0 0 1 11-15l3-2c11-7 25-7 37-2 15 5 27 15 37 26 10 10 19 21 32 28 11 7 26 10 38 4 9-5 14-15 14-25a44 44 0 0 0-4-20 78 78 0 0 0-5-9 138 138 0 0 0-14-17c-13-15-37-34-25-56a1 1 0 0 1 1-1 1 1 0 0 1 0 2Z" fill="#f0f0f0"/><path d="M158 390c-7 8-17 13-27 16l-6 2c-24 5-49-7-58-29-4-9-6-19-7-28 0-7 1-14-2-21-2-6-7-8-12-9a31 31 0 0 1 25-6c10 2 19 9 23 18 6 12 7 25 13 36 5 10 16 18 28 18a30 30 0 0 0 24-12 6 6 0 0 1 2-3c2 0 4 1 5 3s-1 4-2 6a44 44 0 0 1-6 9Z" fill="#fafafa"/><path d="M71 315c10 2 19 9 23 18l2 5a26 26 0 0 0-7-6c2 1 4 13 2 13a2 2 0 0 1-1-1l-8-8c0 6 2 12 1 18l-1 1a12 12 0 0 1-3-3 80 80 0 0 1-7-11 75 75 0 0 0 1 13l-1 5a14 14 0 0 1-6-8 109 109 0 0 0 0 26 83 83 0 0 1-6-26c0-8 1-14-2-21-2-6-7-9-12-9a31 31 0 0 1 25-6Z" fill="#ba68c8"/><path d="M71 315c10 2 19 9 23 18l2 5a26 26 0 0 0-7-6c2 1 4 13 2 13a2 2 0 0 1-1-1l-8-8c0 6 2 12 1 18l-1 1a12 12 0 0 1-3-3 80 80 0 0 1-7-11 75 75 0 0 0 1 13l-1 5a14 14 0 0 1-6-8 109 109 0 0 0 0 26 83 83 0 0 1-6-26c0-8 1-14-2-21-2-6-7-9-12-9a31 31 0 0 1 25-6Z" fill="#fff" opacity=".7"/><path d="M136 227c-16 8-25 11-27 26-1 10-7 47-6 60s20 23 27 26 14 1 32-7l35-17c8-4 15-10 13-33l-3-49c-1-8-3-9-12-13s-20-12-59 7Z" fill="#ebebeb"/><path d="M103 314c1 9 11 17 19 21 9 4 9-3 10-10l4-39c3-24 1-27-7-33s-17-10-20 0c-1 10-7 47-6 61Z" fill="#e0e0e0"/><path d="M118 254a9 9 0 0 0-2 3v4l-1 3v2a7 7 0 0 0-1 2 1 1 0 0 0 1 0c1 1 1-1 1-2l1-4 1-4v-2a6 6 0 0 0 0-2Zm5 2a4 4 0 0 0-1 2v2l-1 3-1 3v3a3 3 0 0 1-1 1h2a4 4 0 0 0 0-1v-2l1-3 1-4v-2a3 3 0 0 0 1-2h-1Zm6 3h-1a14 14 0 0 0-1 3v4l-2 6v1h1l2-7 1-4a11 11 0 0 0 0-3Z" fill="#455a64"/><path d="M112 281a4 4 0 0 0-2 4 12 12 0 0 0 6 9 4 4 0 0 0 4 0l3-2a4 4 0 0 0 2-3 12 12 0 0 0-6-9 4 4 0 0 0-4-1Z" fill="#263238"/><path d="M116 294a3 3 0 0 0 5-3 12 12 0 0 0-5-9 3 3 0 0 0-6 3 12 12 0 0 0 6 9Z" fill="#455a64"/><path d="M110 305a4 4 0 0 0-2 3 12 12 0 0 0 5 9 4 4 0 0 0 4 1l4-2a4 4 0 0 0 1-4 12 12 0 0 0-5-9 4 4 0 0 0-4-1Z" fill="#ba68c8"/><path d="M113 317a3 3 0 0 0 6-3 12 12 0 0 0-6-9 3 3 0 0 0-5 3 12 12 0 0 0 5 9Z" fill="#ba68c8"/><path d="M113 317a3 3 0 0 0 6-3 12 12 0 0 0-6-9 3 3 0 0 0-5 3 12 12 0 0 0 5 9Z" fill="#fff" opacity=".4"/><path d="M241 356c-7-8-11-18-9-29 1-11 10-22 20-26 10-3 22-1 30 6a36 36 0 0 1 13 27 39 39 0 0 1 19-12 20 20 0 0 1 10 0 10 10 0 0 1 7 6c1 3 0 7-2 9l-7 8a46 46 0 0 0-10 16c-1 3-2 7-5 10-5 4-15 4-21 3a70 70 0 0 1-22-5c-8-3-17-7-23-13Z" fill="#f5f5f5"/><path d="M328 329a6 6 0 0 0-2 0 10 10 0 0 0-4 0c-6 1-12 6-16 11s-6 12-8 19c-1 3-1 8 1 11 2 1 5 1 7-1l4-6c3-8 7-15 13-21 3-2 5-4 6-7s1-4-1-6Z" fill="#e0e0e0"/><path d="M328 329a6 6 0 0 0-2 0 10 10 0 0 0-4 0c-6 1-12 6-16 11s-6 12-8 19c-1 3-1 8 1 11 2 1 5 1 7-1l4-6c3-8 7-15 13-21 3-2 5-4 6-7s1-4-1-6Z" opacity=".2"/><path d="M329 331a6 6 0 0 0-2-1 10 10 0 0 0-3 1c-7 1-12 5-16 11s-6 12-8 18c-1 3-1 8 1 11 2 2 5 1 7-1l4-6c3-8 7-15 13-20a29 29 0 0 0 6-7c1-2 0-5-2-6Z" fill="#e0e0e0"/><path d="m306 362 6 2v-1l-6-2-6-2v1l6 2Zm4-11a60 60 0 0 0-7-2v1l7 2 4 2 2 1v-1l-2-1-4-2Zm-5 16 5 2v-1l-5-2-6-2v1l6 2Zm3-10 5 2 1 1v-1h-1l-5-3-6-2-1 1 7 2Zm10-8-5-2-7-3v1l7 2 5 3h1Zm3-5a135 135 0 0 0-11-5l-1 1 6 2 8 4v-1Zm6-9-7-3h-1a137 137 0 0 1 11 6v-1l-3-2Zm-7 4 5 2 1 1 1-1-2-1-5-2-6-3-1 1 7 3Z" fill="#fafafa"/><path d="M295 329c-13 11-11 27-11 27s2-11 11-22a37 37 0 0 0 0-5Z" fill="#e0e0e0"/><path d="M239 234c-9 6-12 18-12 28a23 23 0 0 0 8 17c14 12 28 10 40 12 10 1 12 6 12 14 0 3-1 10 4 16s16 3 20-7 0-30-12-40c-9-7-21-9-30-16-5-3-7-7-9-12s-4-10-8-13a9 9 0 0 0-5-3 9 9 0 0 0-4 1 20 20 0 0 0-4 3Z" fill="#f5f5f5"/><path d="M289 268a19 19 0 0 0-3 1 20 20 0 0 0-6 4 24 24 0 0 0-7 13 31 31 0 0 0-1 4l2 1a32 32 0 0 1 0-4 27 27 0 0 1 2-7 21 21 0 0 1 10-9 17 17 0 0 1 5-2l-2-1Zm-32 21v-2l1-4a36 36 0 0 1 4-9 24 24 0 0 1 13-11 18 18 0 0 1 2 0l-2-1a23 23 0 0 0-8 4c-5 4-8 9-10 15a48 48 0 0 0-1 6l-1 2Z" fill="#e0e0e0"/><path d="M307 285c-4-6-21 0-22 11a10 10 0 0 1 2 3c-5 0-7-5-6-9s10-12 18-12 11 6 10 10Z" fill="#ba68c8"/><path d="M307 285c-4-6-21 0-22 11a10 10 0 0 1 2 3c-5 0-7-5-6-9s10-12 18-12 11 6 10 10Z" fill="#fff" opacity=".2"/><path d="M262 235c-3-6-9-10-16-10-6 0-11 4-14 9a34 34 0 0 0-6 31c1 4 3 7 6 9a14 14 0 0 0 7 2 23 23 0 0 0 17-7c9-8 12-23 6-34Z" fill="#ba68c8"/><path d="M262 235c-3-6-9-10-16-10-6 0-11 4-14 9a34 34 0 0 0-6 31c1 4 3 7 6 9a14 14 0 0 0 7 2 23 23 0 0 0 17-7c9-8 12-23 6-34Z" fill="#fff" opacity=".2"/><path d="M255 257c6 4 16 17 14 33 0 0 27 24 20 64-8 51-73 71-116 59s-50-45-46-81c5-40 22-51 22-51Z" fill="#e6e6e6"/><path d="M255 235c-25-31-107-12-113 28a26 26 0 0 0 0 8 55 55 0 0 0 1 7 27 27 0 0 0 4 8c23 33 108 14 114-26a27 27 0 0 0 0-9 55 55 0 0 0-1-6 29 29 0 0 0-5-10Z" fill="#455a64"/><path d="M178 294a14 14 0 0 1 0 5 8 8 0 0 0 0 3l1 1a6 6 0 0 1 0-4 15 15 0 0 0-1-5c0-3 0-6 2-9-3 3-3 6-2 9Z" fill="#37474f"/><path d="M208 290c-14 3-30 3-42-1-12-3-20-10-22-19s2-19 11-28c19-18 55-26 80-18 12 4 20 11 22 19s-2 19-11 28c-10 9-24 15-38 19Zm-15-66c-14 3-28 10-38 19-9 8-13 18-11 27s10 15 22 19c25 7 60-1 79-19 9-8 13-18 11-26s-9-16-21-20c-13-3-28-3-42 0Z" fill="#37474f"/><path d="m252 233 2 8c2 8-2 17-11 26a86 86 0 0 1-77 18c-12-4-19-11-21-19l-1-8c2 9 9 15 21 19 24 8 58 0 76-18 10-8 13-18 11-26Z" fill="#f0f0f0"/><path d="M223 280a80 80 0 0 0 8-4l-2-8a82 82 0 0 1-8 4Z" fill="#fafafa"/><path d="M252 243a35 35 0 0 1-12 18l2 7 1-1c6-5 9-11 11-16Zm-46 34c-14 4-29 4-41 0s-20-10-21-19l1 8c2 8 9 15 21 19 13 4 28 3 42 0Z" fill="#e0e0e0"/><path d="M168 285a73 73 0 0 0 25 2l-2-7a73 73 0 0 1-25-3Z" fill="#f5f5f5"/><path d="M253 230c-2-8-10-15-22-19-24-8-59 1-78 18-9 9-13 19-11 27l1 3c1 8 9 15 21 19 25 8 60-1 78-18 10-9 13-18 11-27v-3Z" fill="#37474f"/><path d="M163 275c25 8 60-1 79-18 9-9 13-18 11-27s-10-15-22-19c-24-8-59 1-78 18-9 9-13 19-11 27s9 15 21 19Z" fill="#455a64"/><path d="M186 282a49 49 0 0 1-14-1 1 1 0 0 0-1 0l-1 1a1 1 0 0 0 0 1 3 3 0 0 0 2 2 49 49 0 0 0 14 1 1 1 0 0 0 1 0l1-1a1 1 0 0 0 0-1 2 2 0 0 0-2-2Z" fill="#37474f"/><path d="M172 285a49 49 0 0 0 14 1 1 1 0 0 0 1-1 2 2 0 0 0-2-2 49 49 0 0 1-14-1l-1 1a3 3 0 0 0 2 2Z" fill="#455a64"/><circle cx="187.1" cy="201.2" r="73.7" fill="#fff" opacity=".3"/><circle cx="187.1" cy="201.2" r="73.7" fill="#ba68c8" opacity=".2"/><path d="M193 170c0-2-8 1-11 7a36 36 0 0 0-4 6 29 29 0 0 0-4-1c-5-2-11 0-10 1s5 3 7 8l8-5 14-2c-2-6 0-11 0-14Z" fill="#fafafa"/><path d="M193 199c6-27 34-40 41-34 5 4-6 37-6 37s-29 11-35-3Z" fill="#ebebeb"/><path d="M207 190c8 7 21 12 21 12s11-33 6-37c-3-2-21 4-27 25Z" fill="#ffa8a7"/><path d="M227 191a14 14 0 0 1 1-4v-6l-8 1v-6c-3 0-9 6-8 12l8 4 4 1a6 6 0 0 0 3-2Z" fill="#f28f8f"/><path d="M212 188c0-5 6-10 9-10v6s8-3 11 1c0 0-3 2-4 8-6 6-16-5-16-5Zm-39 15c-17-22-48-21-52-13-2 6 21 30 21 30s32-2 31-17Z" fill="#ebebeb"/><path d="M157 201c-5 10-14 19-14 19s-24-24-21-30c2-3 20-6 35 11Z" fill="#ffa8a7"/><path d="M143 214a14 14 0 0 0-2-3l-2-5c2-2 7-3 7-3l-3-5c2-1 11 0 13 6l-5 8-4 3a7 7 0 0 1-4-1Z" fill="#f28f8f"/><path d="M155 204c-2-3-10-5-13-4 0 0 3 2 3 5 0 0-8 1-9 6 0 0 4 0 7 6 8 2 12-13 12-13Z" fill="#ebebeb"/><path d="M205 269c-44 11-67-15-67-15l2-3-8-4s0-4 10-27 23-32 41-36 34-2 53 14 20 21 20 21l-5 6 3 2s-6 31-49 42Z" fill="#fafafa"/><path d="M172 187a27 27 0 0 1 4 12 1 1 0 0 0 3 0 30 30 0 0 0-4-13l-3 1Zm11-3-3 1a44 44 0 0 1 5 16c1 2 4 2 3 0a47 47 0 0 0-5-17Zm8-2-3 1a37 37 0 0 1 4 11 2 2 0 0 0 1 1 1 1 0 0 0 2-2 41 41 0 0 0-4-11Z" fill="#ba68c8"/><path d="M172 187a27 27 0 0 1 4 12 1 1 0 0 0 3 0 30 30 0 0 0-4-13l-3 1Zm11-3-3 1a44 44 0 0 1 5 16c1 2 4 2 3 0a47 47 0 0 0-5-17Zm8-2-3 1a37 37 0 0 1 4 11 2 2 0 0 0 1 1 1 1 0 0 0 2-2 41 41 0 0 0-4-11Z" fill="#fff" opacity=".7"/><path d="M206 257c21-7 21-22 15-28s-14-10-24-7c-11 3-18 10-19 19s5 23 28 16Z" fill="#ba68c8"/><path d="M206 257c21-7 21-22 15-28s-14-10-24-7c-11 3-18 10-19 19s5 23 28 16Z" fill="#fff" opacity=".7"/><path d="M226 203c2 5 1 11-2 14-4 3-8 3-13 0-2-7 0-13 4-14s7-2 11 0Z" fill="#ba68c8"/><path d="M212 213c1 4 5 5 8 4s4-6 2-9-5-5-8-3-4 5-2 8Z" fill="#263238"/><path d="M219 206a2 2 0 1 0 4-1 2 2 0 0 0-2-1 2 2 0 0 0-2 2Zm2 5a1 1 0 0 1 0-1 4 4 0 0 1 1-1 3 3 0 0 1 2 0 2 2 0 0 1 1 1 1 1 0 0 1 0 1 1 1 0 0 1-1 0 3 3 0 0 1-1 0 6 6 0 0 0-2 0Z" fill="#fff"/><path d="M230 219a1 1 0 0 1-1-1c1-5 3-11 11-13a1 1 0 0 1 1 1 1 1 0 0 1-1 1c-6 1-9 7-9 11a1 1 0 0 1-1 1Zm3 2a1 1 0 0 1-1-1 1 1 0 0 1 0-1c1-3 6-6 8-7a1 1 0 0 1 1 1 1 1 0 0 1 0 1 10 10 0 0 0-8 6 1 1 0 0 1 0 1Zm0 3a1 1 0 0 1 0-1 13 13 0 0 1 14-4 1 1 0 0 1 0 2h-1a12 12 0 0 0-12 3 1 1 0 0 1-1 0Zm-71 14h1a1 1 0 0 0-1-1c-4-4-10-8-18-4a1 1 0 0 0-1 2 1 1 0 0 0 2 0c7-3 13 0 16 3a1 1 0 0 0 1 0Zm-1 3a1 1 0 0 0 0-1c-4-2-10-2-13 0a1 1 0 0 0 0 1 1 1 0 0 0 1 1c3-2 8-2 11 0a1 1 0 0 0 1-1Zm2 4a1 1 0 0 0-1-2c-4 0-11 2-15 7a1 1 0 0 0 0 2 1 1 0 0 0 1 0c4-5 10-7 14-7a1 1 0 0 0 1 0Zm53-46a7 7 0 0 1 1-1 8 8 0 0 1 4-1 2 2 0 0 1 1 0v1a2 2 0 0 1-1 0 12 12 0 0 0-2 0 25 25 0 0 0-3 1Zm-3 0a8 8 0 0 1 1-1 9 9 0 0 1 2-4 2 2 0 0 1 1 0l1 1a1 1 0 0 1-1 0 13 13 0 0 0-2 2l-2 3v-1Z" fill="#455a64"/><path d="M157 222c1 6 6 10 11 11 4 0 8-3 10-8-1-7-7-10-11-10s-7 3-10 7Z" fill="#ba68c8"/><path d="M176 222c1 4-2 8-5 8s-7-2-7-6 1-7 5-7 6 2 7 5Z" fill="#263238"/><path d="M165 221a2 2 0 1 1-3-2 2 2 0 0 1 3 2Zm1 5a1 1 0 0 0-1-1 5 5 0 0 0-1 0 3 3 0 0 0-2 1 2 2 0 0 0 0 2h1l1-1a7 7 0 0 1 2-1Z" fill="#fff"/><path d="M163 213a8 8 0 0 0-1 0 10 10 0 0 0-5 1v1a2 2 0 0 0 1 0 14 14 0 0 1 3-1 25 25 0 0 1 3-1h-1Zm3-1a9 9 0 0 0-1-2 10 10 0 0 0-5-1 2 2 0 0 0-1 0l1 1a15 15 0 0 1 3 1l3 1Z" fill="#455a64"/><path d="M193 242a7 7 0 0 1-5-2 1 1 0 0 1 0-1 1 1 0 0 1 1 0c2 2 6 1 9-1a6 6 0 0 0 2-7 6 6 0 0 1 0-1 1 1 0 0 1 1 0 10 10 0 0 1 0 1 8 8 0 0 0 3 3 7 7 0 0 0 6 0 1 1 0 1 1 1 2 9 9 0 0 1-7-1 9 9 0 0 1-2-1 8 8 0 0 1-3 5 10 10 0 0 1-6 3Z" fill="#263238"/><path d="M201 232c1-1 3-3 3-5s-9 1-9 2c1 2 5 3 6 3Z" fill="#f28f8f"/><path d="M187 275a74 74 0 1 1 74-74 74 74 0 0 1-74 74Zm0-147a73 73 0 1 0 73 73 73 73 0 0 0-73-73Z" fill="#ba68c8"/><path d="M186 135a9 9 0 0 0-5 5c-1 2 0 4 2 6a15 15 0 0 0 6 2l6 1a74 74 0 0 1 11 2c3 1 9 3 11 0 4-5-1-11-5-13-8-4-18-7-26-3Zm36 20a10 10 0 0 0 0 8 21 21 0 0 0 5 5c8 8 16 17 19 28a48 48 0 0 0 3 8 5 5 0 0 0 2 2c3 2 5-2 5-5v-1a63 63 0 0 0-6-32c-4-7-13-22-23-18-2 1-5 3-5 5Z" fill="#fff" opacity=".5"/><path d="M229 368a29 29 0 0 1-15 4c-8 0-16-3-24-9l-15-14a90 90 0 0 0-30-23c-7-2-14 0-18 4a11 11 0 0 0-1 1c-2 4-2 8 0 13v9c-7-8-8-18-3-25a17 17 0 0 1 5-5c5-3 12-3 18-2 11 4 22 15 32 25l15 13c11 9 24 10 33 5a27 27 0 0 0 13-26h5a31 31 0 0 1-15 30Z" fill="#455a64"/><path d="M273 295a4 4 0 0 0-2-3l-6-2c-1-1-3 0-4 1-8 8-19 15-33 20a7 7 0 0 0-4 8l4 16a6 6 0 0 0 3 4l6 3a5 5 0 0 0 4 0c14-6 26-13 33-20 3-3 4-7 3-11Z" fill="#ba68c8"/><path d="m224 319 4 16a6 6 0 0 0 3 4l6 3a5 5 0 0 0 1 0l-5-23-9-4a7 7 0 0 0 0 4Z" opacity=".2"/><path d="M267 293c-8 9-19 15-33 21a7 7 0 0 0-4 8l4 16a5 5 0 0 0 7 4c14-6 26-13 33-20 3-3 4-7 3-11l-4-16c-1-3-3-4-6-2Z" fill="#ba68c8"/><path d="M267 293c-8 9-19 15-33 21a7 7 0 0 0-4 8l4 16a5 5 0 0 0 7 4c14-6 26-13 33-20 3-3 4-7 3-11l-4-16c-1-3-3-4-6-2Z" fill="#fff" opacity=".3"/><path d="M241 338v-3l-2-6-1-5-1-3a15 15 0 0 0-2-3h-1a34 34 0 0 0 2 6l1 5 2 5v3l1 2a1 1 0 0 0 1 0 1 1 0 0 0 0-1Zm5-3v-2l-2-6a213 213 0 0 0-2-8 15 15 0 0 0-2-4l-1 1a34 34 0 0 0 2 5l1 6 2 5v2l1 3a1 1 0 0 0 1-1v-1Zm5-2v-3l-2-6-1-5-1-3a15 15 0 0 0-1-3h-2a33 33 0 0 0 2 6l1 5 2 5v3l1 2a1 1 0 0 0 1 0 1 1 0 0 0 1-1Z" fill="#ba68c8"/><path d="M250 332v-2l-2-6-1-6-1-3a19 19 0 0 0-1-2h-1a33 33 0 0 0 2 6l1 5 2 5v3a7 7 0 0 0 1 2 1 1 0 0 0 0-1v-1Zm-10 5v-1l-1-1-1-6-2-6v-3a17 17 0 0 0-1-2h-1a34 34 0 0 0 2 6l1 5 2 5v3a7 7 0 0 0 1 1v-1Zm5-2v-2l-1-1-1-6a213 213 0 0 0-3-8 17 17 0 0 0-1-3v1a34 34 0 0 0 2 5l1 6 2 5v2a7 7 0 0 0 1 2 1 1 0 0 0 0-1Z" opacity=".2"/><path d="M258 308a2 2 0 0 1 2 2 7 7 0 0 1-2 6 2 2 0 0 1-2 0h-3a2 2 0 0 1-1-2 7 7 0 0 1 2-6 2 2 0 0 1 2-1Z" fill="#263238"/><path d="M258 316a2 2 0 0 1-2 0 2 2 0 0 1-2-1 7 7 0 0 1 2-7 2 2 0 0 1 2 0 2 2 0 0 1 2 2 7 7 0 0 1-2 6Z" fill="#455a64"/><path d="M270 300a2 2 0 0 1 1 2 7 7 0 0 1-2 6 2 2 0 0 1-2 1l-2-1a2 2 0 0 1-1-2 7 7 0 0 1 1-6 2 2 0 0 1 3-1Z" fill="#e0e0e0"/><path d="M269 308a2 2 0 0 1-2 1 2 2 0 0 1-1-2 7 7 0 0 1 2-6 2 2 0 0 1 2-1 2 2 0 0 1 1 2 7 7 0 0 1-2 6Z" fill="#f5f5f5"/><path d="M261 320a2 2 0 0 1 2 2 7 7 0 0 1-2 6 2 2 0 0 1-2 1l-3-1a2 2 0 0 1-1-2 7 7 0 0 1 2-6 2 2 0 0 1 2 0Z" fill="#263238"/><path d="M261 328a2 2 0 0 1-2 1 2 2 0 0 1-2-2 7 7 0 0 1 2-6 2 2 0 0 1 2-1 2 2 0 0 1 2 2 7 7 0 0 1-2 6Z" fill="#455a64"/><path d="M273 313a2 2 0 0 1 1 1 7 7 0 0 1-2 7 2 2 0 0 1-2 0h-2a2 2 0 0 1-2-2 7 7 0 0 1 2-6 2 2 0 0 1 2-1Z" fill="#263238"/><path d="M272 321a2 2 0 0 1-2 0 2 2 0 0 1-1-2 7 7 0 0 1 2-6 2 2 0 0 1 2 0 2 2 0 0 1 1 1 7 7 0 0 1-2 7Z" fill="#455a64"/><path d="M172 300c0-11-17-28-33-20s-12 35 0 40 33-20 33-20Z" fill="#ba68c8"/><path d="M172 300c0-11-17-28-33-20s-12 35 0 40 33-20 33-20Z" fill="#fff" opacity=".2"/><path d="M145 283c-15 5-12 30-3 41s25 19 38 19c19 0 26-9 37-14 10-4 14-1 18 6 2 3 4 10 11 13s15-6 14-16-15-27-31-29-31 6-41 5c-7 0-11-2-17-9-8-11-21-17-26-16Z" fill="#f5f5f5"/><path d="M181 343v-2a38 38 0 0 1 0-5 37 37 0 0 1 2-9 37 37 0 0 1 9-15 45 45 0 0 1 6-5l-3 1a38 38 0 0 0-3 2 38 38 0 0 0-13 25 40 40 0 0 0 0 8h1Zm35-40a25 25 0 0 0-5 8 36 36 0 0 0-3 18 34 34 0 0 0 1 5l1-1-1-3a35 35 0 0 1 0-9c1-5 3-11 7-15a15 15 0 0 1 3-3h-3Zm-61 32 1-3a42 42 0 0 1 17-22 47 47 0 0 1 8-3 17 17 0 0 1-2-1 37 37 0 0 0-4 2 44 44 0 0 0-8 5 43 43 0 0 0-12 17l-1 4 1 1Zm14-36a27 27 0 0 1 3 1l-1-1c-1-1 0 0 0 0a29 29 0 0 0-18 1 28 28 0 0 0-15 15l-1 1 1 1a28 28 0 0 1 6-9 27 27 0 0 1 19-9 28 28 0 0 1 6 0Z" fill="#e0e0e0"/><path d="M242 308c-6-3-18 11-14 20a11 11 0 0 1 3 2c-3 3-8-1-9-5s2-15 10-19 12 0 12 4Z" fill="#ba68c8"/><path d="M242 308c-6-3-18 11-14 20a11 11 0 0 1 3 2c-3 3-8-1-9-5s2-15 10-19 12 0 12 4Z" fill="#fff" opacity=".2"/><path d="M157 409c-8-6-14-16-14-27 1-11 8-23 18-28 9-5 21-4 30 1a36 36 0 0 1 16 26 40 40 0 0 1 17-14 20 20 0 0 1 10-2c3 0 7 2 8 5s1 7-1 10l-6 8a46 46 0 0 0-8 18c0 3-1 7-4 10-4 5-13 6-19 6a70 70 0 0 1-23-2c-8-3-18-5-24-11Z" fill="#f5f5f5"/><path d="M240 372a6 6 0 0 0-3 0 10 10 0 0 0-3 0c-7 3-12 8-15 14s-5 12-5 19c-1 3-1 8 2 11 2 1 5 0 7-2s2-4 3-7c2-8 5-15 11-22a30 30 0 0 0 5-7c1-3 0-5-2-6Z" fill="#e0e0e0"/><path d="M240 372a6 6 0 0 0-3 0 10 10 0 0 0-3 0c-7 3-12 8-15 14s-5 12-5 19c-1 3-1 8 2 11 2 1 5 0 7-2s2-4 3-7c2-8 5-15 11-22a30 30 0 0 0 5-7c1-3 0-5-2-6Z" opacity=".2"/><path d="M241 374a6 6 0 0 0-2-1 10 10 0 0 0-4 1c-6 2-11 7-14 13s-5 13-5 19c-1 3-1 8 2 11 2 1 5 0 7-2l3-6c2-8 5-16 10-22a30 30 0 0 0 5-7c1-3 0-5-2-6Z" fill="#e0e0e0"/><path d="m222 407 6 2v-1l-6-1-6-2v1l6 1Zm2-11a57 57 0 0 0-6-1l-1 1a76 76 0 0 1 14 3v-1a51 51 0 0 0-7-2Zm-3 16 5 1a182 182 0 0 0-10-3v1l5 1Zm2-10 5 2h1v-1a84 84 0 0 0-13-3v1l7 1Zm9-9-5-2-7-2-1 1 8 2 5 2h1l1-1Zm3-5-6-2-6-2-1 1a169 169 0 0 1 14 4l1-1Zm4-10-7-2h-1a141 141 0 0 1 11 5l1-1-4-2Zm-7 4 6 2 2 1v-1l-2-1-5-1-7-2v1l6 1Z" fill="#fafafa"/><path d="M206 376c-11 13-7 28-7 28s0-11 8-23a37 37 0 0 0-1-5Z" fill="#e0e0e0"/><path d="M114 208a4 4 0 0 0-3 3 12 12 0 0 0 3 11 4 4 0 0 0 3 1l4-1a4 4 0 0 0 3-3 12 12 0 0 0-3-10 4 4 0 0 0-4-2Z" fill="#ba68c8"/><path d="M114 222a3 3 0 0 0 6-2 12 12 0 0 0-3-10 3 3 0 0 0-6 1 12 12 0 0 0 3 11Z" fill="#ba68c8"/><path d="M114 222a3 3 0 0 0 6-2 12 12 0 0 0-3-10 3 3 0 0 0-6 1 12 12 0 0 0 3 11Z" fill="#fff" opacity=".4"/><path d="M115 219c-11 4-21 18-22 44-2 21 11 40 19 45 5 2 5 9 1 7s-29-17-27-54 22-46 28-49c3-1 4 6 1 7Z" fill="#455a64"/><g fill="#ba68c8"><path d="M266 396a54 54 0 0 1 0-109h1a54 54 0 0 1-1 109Zm0-107a53 53 0 0 0 0 106 53 53 0 0 0 1-106Z" opacity=".5"/><path d="M266 400a58 58 0 0 1 0-117h1a58 58 0 0 1-1 117Zm0-115a57 57 0 0 0 0 114 57 57 0 0 0 1-114Z" opacity=".4"/><path d="M266 405h-1a63 63 0 1 1 1 0Zm0-125a61 61 0 1 0 1 0Z" opacity=".2"/><path d="M266 411h-1a69 69 0 0 1 1-138h1a69 69 0 0 1-1 138Zm0-137a68 68 0 0 0-1 135h1a68 68 0 0 0 1-135Z" opacity=".1"/></g><circle cx="266.1" cy="341.6" r="49.8" transform="rotate(-90 266 342)" fill="#ba68c8"/><circle cx="266.1" cy="341.6" r="49.8" transform="rotate(-90 266 342)" fill="#fff" opacity=".7"/><g opacity=".2" fill="#ba68c8"><path d="M225 339h24c4 0 9-2 13-1l11 3a37 37 0 0 0 11-1c8-2 15-5 21-10l8-6-2-4c-2 3-5 5-8 6-6 5-12 8-19 10a33 33 0 0 1-11 1l-11-3c-4-1-7 0-11 1l-12 1a182 182 0 0 1-21-1h-1l-1 3 9 1Z"/><path d="M233 328a66 66 0 0 0 19-2c6-1 12-4 18-2 4 2 10 3 15 2a53 53 0 0 0 18-9l4-3-2-4-1 1-4 3c-3 2-5 4-9 5a40 40 0 0 1-10 3c-2 0-8 0-9-3l1-1 16-11a16 16 0 0 0 3-3 12 12 0 0 0 1-3 5 5 0 0 0 0-1l-2-1c-1 3-5 6-8 8a68 68 0 0 1-13 8c-11 6-22 9-34 10a59 59 0 0 1-16-2l-1 3a49 49 0 0 0 14 2Z"/><path d="M251 316c10-2 20-5 28-10a28 28 0 0 0 6-5 16 16 0 0 0 2-4l-2-1a21 21 0 0 1-2 2 26 26 0 0 1-5 5 53 53 0 0 1-12 6 87 87 0 0 1-41 5l-2 2a90 90 0 0 0 28 0Z"/><path d="M234 307a41 41 0 0 0 9 1 66 66 0 0 0 18-3c5-2 11-3 16-6a21 21 0 0 0 6-4l-4-2a24 24 0 0 1-6 4 95 95 0 0 1-15 5 58 58 0 0 1-16 2 38 38 0 0 1-8-1l-3 3 3 1Zm74 56a63 63 0 0 1-15 11c-6 3-13 6-19 4-3 0-5-3-9-4h-11a127 127 0 0 1-13 1 75 75 0 0 1-12 0l3 3a73 73 0 0 0 12 1l13-1a44 44 0 0 1 5-1c2 0 7 2 6 4l-4 1-5 2-12 3h-2a47 47 0 0 0 5 2l10-2 15-4c5-1 10-1 14-3a64 64 0 0 0 19-11 49 49 0 0 0 5-12 62 62 0 0 1-5 6Zm-58-18a67 67 0 0 1-13 3 106 106 0 0 1-12 0h-8v3l7 1a87 87 0 0 0 14-1 65 65 0 0 0 13-2c4-2 8-4 12-4v-1c-4-2-8 0-13 1Zm14 19a213 213 0 0 0 24-7 72 72 0 0 0 21-11l7-6-1-5-7 7a68 68 0 0 1-20 11 212 212 0 0 1-22 7 95 95 0 0 1-23 3 64 64 0 0 1-12-1 72 72 0 0 1-12-3l2 3c6 3 12 4 19 5a86 86 0 0 0 24-3Z"/><path d="M278 349a84 84 0 0 1-14 4 72 72 0 0 0 14-2 70 70 0 0 0 13-4 82 82 0 0 0 21-15l2-2v-3a84 84 0 0 1-36 22Zm35 0-11 8a55 55 0 0 1-13 7l-6 3-4 1a38 38 0 0 0-4 1v1a22 22 0 0 0 4 0 30 30 0 0 0 3 0 49 49 0 0 0 8-2 51 51 0 0 0 14-8l11-8a51 51 0 0 0 1-6l-3 3Z"/></g><path d="M274 292c18 4 35 38 23 64-12 28-50 33-68 19a50 50 0 1 0 45-83Z" fill="#ba68c8" opacity=".3"/><path d="M266 391a50 50 0 0 0 27-91c1 1 23 15 17 50-7 36-44 41-52 41a50 50 0 0 0 8 0Z" fill="#ba68c8" opacity=".2"/><path d="M261 310a8 8 0 1 0-8 8 8 8 0 0 0 8-8Zm-23 7a13 13 0 1 0 13 13 13 13 0 0 0-13-13Zm25 5a6 6 0 1 0 6 7 6 6 0 0 0-6-7Z" fill="#fff" opacity=".4"/><path d="M336 303c-2-4-9-7-15-8a84 84 0 0 0-30 4l2 1 5-1c29-6 38 9 21 33l-3 4c-18 21-50 41-76 48l-5 1c-29 6-39-9-21-33l3-4v-1a73 73 0 0 0-16 24c-3 7-2 12-1 16 2 3 5 4 8 6a32 32 0 0 0 9 1 66 66 0 0 0 13-1 121 121 0 0 0 22-7 198 198 0 0 0 60-38 121 121 0 0 0 16-17c8-12 11-22 8-28Z" fill="#ba68c8"/><path d="M336 303c-2-4-9-7-15-8a84 84 0 0 0-30 4l2 1 5-1c29-6 38 9 21 33l-3 4c-18 21-50 41-76 48l-5 1c-29 6-39-9-21-33l3-4v-1a73 73 0 0 0-16 24c-3 7-2 12-1 16 2 3 5 4 8 6a32 32 0 0 0 9 1 66 66 0 0 0 13-1 121 121 0 0 0 22-7 198 198 0 0 0 60-38 121 121 0 0 0 16-17c8-12 11-22 8-28Z" opacity=".1"/><path d="M172 300c0-11-17-28-33-20s-12 35 0 40 33-20 33-20Z" fill="#ba68c8"/><path d="M172 300c0-11-17-28-33-20s-12 35 0 40 33-20 33-20Z" fill="#fff" opacity=".2"/><path d="M145 283c-15 5-12 30-3 41s25 19 38 19c19 0 26-9 37-14 10-4 14-1 18 6 2 3 4 10 11 13s15-6 14-16-15-27-31-29-31 6-41 5c-7 0-11-2-17-9-8-11-21-17-26-16Z" fill="#f5f5f5"/><path d="M181 343v-2a38 38 0 0 1 0-5 37 37 0 0 1 2-9 37 37 0 0 1 9-15 45 45 0 0 1 6-5l-3 1a38 38 0 0 0-3 2 38 38 0 0 0-13 25 40 40 0 0 0 0 8h1Zm35-40a25 25 0 0 0-5 8 36 36 0 0 0-3 18 34 34 0 0 0 1 5l1-1-1-3a35 35 0 0 1 0-9c1-5 3-11 7-15a15 15 0 0 1 3-3h-3Zm-61 32 1-3a42 42 0 0 1 17-22 47 47 0 0 1 8-3 17 17 0 0 1-2-1 37 37 0 0 0-4 2 44 44 0 0 0-8 5 43 43 0 0 0-12 17l-1 4 1 1Zm14-36a27 27 0 0 1 3 1l-1-1c-1-1 0 0 0 0a29 29 0 0 0-18 1 28 28 0 0 0-15 15l-1 1 1 1a28 28 0 0 1 6-9 27 27 0 0 1 19-9 28 28 0 0 1 6 0Z" fill="#e0e0e0"/><path d="M242 308c-6-3-18 11-14 20a11 11 0 0 1 3 2c-3 3-8-1-9-5s2-15 10-19 12 0 12 4Z" fill="#ba68c8"/><path d="M242 308c-6-3-18 11-14 20a11 11 0 0 1 3 2c-3 3-8-1-9-5s2-15 10-19 12 0 12 4Z" fill="#fff" opacity=".2"/><path d="M157 409c-8-6-14-16-14-27 1-11 8-23 18-28 9-5 21-4 30 1a36 36 0 0 1 16 26 40 40 0 0 1 17-14 20 20 0 0 1 10-2c3 0 7 2 8 5s1 7-1 10l-6 8a46 46 0 0 0-8 18c0 3-1 7-4 10-4 5-13 6-19 6a70 70 0 0 1-23-2c-8-3-18-5-24-11Z" fill="#f5f5f5"/><path d="M240 372a6 6 0 0 0-3 0 10 10 0 0 0-3 0c-7 3-12 8-15 14s-5 12-5 19c-1 3-1 8 2 11 2 1 5 0 7-2s2-4 3-7c2-8 5-15 11-22a30 30 0 0 0 5-7c1-3 0-5-2-6Z" fill="#e0e0e0"/><path d="M240 372a6 6 0 0 0-3 0 10 10 0 0 0-3 0c-7 3-12 8-15 14s-5 12-5 19c-1 3-1 8 2 11 2 1 5 0 7-2s2-4 3-7c2-8 5-15 11-22a30 30 0 0 0 5-7c1-3 0-5-2-6Z" opacity=".2"/><path d="M241 374a6 6 0 0 0-2-1 10 10 0 0 0-4 1c-6 2-11 7-14 13s-5 13-5 19c-1 3-1 8 2 11 2 1 5 0 7-2l3-6c2-8 5-16 10-22a30 30 0 0 0 5-7c1-3 0-5-2-6Z" fill="#e0e0e0"/><path d="m222 407 6 2v-1l-6-1-6-2v1l6 1Zm2-11a57 57 0 0 0-6-1l-1 1a76 76 0 0 1 14 3v-1a51 51 0 0 0-7-2Zm-3 16 5 1a182 182 0 0 0-10-3v1l5 1Zm2-10 5 2h1v-1a84 84 0 0 0-13-3v1l7 1Zm9-9-5-2-7-2-1 1 8 2 5 2h1l1-1Zm3-5-6-2-6-2-1 1a169 169 0 0 1 14 4l1-1Zm4-10-7-2h-1a141 141 0 0 1 11 5l1-1-4-2Zm-7 4 6 2 2 1v-1l-2-1-5-1-7-2v1l6 1Z" fill="#fafafa"/><path d="M206 376c-11 13-7 28-7 28s0-11 8-23a37 37 0 0 0-1-5Z" fill="#e0e0e0"/><path d="M311 314c-4 10-15 14-20 7s-4-13-4-16a22 22 0 0 0 0-6 2 2 0 0 0 0-1 9 9 0 0 0-2-2c1-11 18-17 22-11l2 3c4 9 5 20 2 26Z" fill="#f5f5f5"/></svg>